<?xml version="1.0" encoding="utf-8"?>
<!-- Generator: Adobe Illustrator 25.2.1, SVG Export Plug-In . SVG Version: 6.00 Build 0)  -->
<svg version="1.1" id="layer" xmlns="http://www.w3.org/2000/svg" xmlns:xlink="http://www.w3.org/1999/xlink" x="0px" y="0px"
	 viewBox="0 0 652 652" style="enable-background:new 0 0 652 652;" xml:space="preserve">
<style type="text/css">
	.st0{fill:#7159C1;}
</style>
<path id="Text" class="st0" d="M105.6,236c-17.8,0-33.9,5.6-47.2,14.4V186c-0.6-10.6-8.9-18.9-19.4-18.9s-19,8.4-19,18.9v135
	c0,47.2,38.3,85.6,85.6,85.6s85.6-38.3,85.6-85.6C190.6,273.8,152.2,236,105.6,236z M105.6,368.8c-26.1,0-47.2-21.1-47.8-47.2
	c0-1.1,0.6-2.2,0.6-3.3V315c2.8-23.9,22.8-42.2,47.2-42.2c26.1,0,47.8,21.7,47.8,47.8C153.3,347.7,131.7,368.8,105.6,368.8z
	 M351.1,235.5c-47.2,0-85.6,38.3-85.6,85.6s38.3,85.6,85.6,85.6c47.2-0.6,85.6-38.9,85.6-86.1S398.3,235.5,351.1,235.5z
	 M351.1,368.2c-26.1,0-47.8-21.7-47.8-47.8c0-26.1,21.1-47.8,47.8-47.8c26.1,0,47.8,21.1,47.8,47.8S377.8,368.2,351.1,368.2z
	 M620,321c0-47.2-38.3-85.6-85.6-85.6s-85.6,38.3-85.6,85.6s38.3,85.6,85.6,85.6c17.8,0,33.9-5.6,47.2-14.4v65.6
	c0,10.6,8.3,18.9,18.9,18.9c10.6,0,18.9-8.3,18.9-18.9v-134C620,322.7,620,322.1,620,321z M582.8,321.6c0,1.1-0.6,2.2-0.6,3.3v1.7
	c-2.8,23.9-22.8,42.2-47.2,42.2c-26.1,0-47.8-21.1-47.8-47.8c0-26.1,21.1-47.8,47.8-47.8C561.1,273.2,582.8,294.9,582.8,321.6
	C582.8,321,582.8,321.6,582.8,321.6z M227.8,167.1c-10.6,0-18.9,8.3-18.9,18.9v201.1c0,10.6,8.3,18.9,18.9,18.9s18.9-8.3,18.9-18.9
	V186C246.7,175.5,238.3,167.1,227.8,167.1z"/>
</svg>
